<?xml version="1.0" encoding="UTF-8" standalone="no"?>
<svg
   xmlns:dc="http://purl.org/dc/elements/1.1/"
   xmlns:cc="http://creativecommons.org/ns#"
   xmlns:rdf="http://www.w3.org/1999/02/22-rdf-syntax-ns#"
   xmlns:svg="http://www.w3.org/2000/svg"
   xmlns="http://www.w3.org/2000/svg"
   xmlns:sodipodi="http://sodipodi.sourceforge.net/DTD/sodipodi-0.dtd"
   xmlns:inkscape="http://www.inkscape.org/namespaces/inkscape"
   enable-background="new 0 0 24 24"
   height="24"
   viewBox="0 0 24 24"
   width="24"
   version="1.1"
   id="svg14"
   sodipodi:docname="import_layer.svg"
   inkscape:version="1.0.1 (3bc2e813f5, 2020-09-07)">
  <metadata
     id="metadata20">
    <rdf:RDF>
      <cc:Work
         rdf:about="">
        <dc:format>image/svg+xml</dc:format>
        <dc:type
           rdf:resource="http://purl.org/dc/dcmitype/StillImage" />
        <dc:title></dc:title>
      </cc:Work>
    </rdf:RDF>
  </metadata>
  <defs
     id="defs18" />
  <sodipodi:namedview
     pagecolor="#ffffff"
     bordercolor="#666666"
     borderopacity="1"
     objecttolerance="10"
     gridtolerance="10"
     guidetolerance="10"
     inkscape:pageopacity="0"
     inkscape:pageshadow="2"
     inkscape:window-width="1920"
     inkscape:window-height="1018"
     id="namedview16"
     showgrid="false"
     inkscape:zoom="34.521073"
     inkscape:cx="12"
     inkscape:cy="12"
     inkscape:window-x="-6"
     inkscape:window-y="-6"
     inkscape:window-maximized="1"
     inkscape:current-layer="svg14" />
  <g
     id="g4">
    <path
       d="M0,0h24v24H0V0z"
       fill="none"
       id="path2" />
  </g>
  <g
     id="g12"
     style="fill:#b0b0b0;fill-opacity:1">
    <g
       id="g10"
       style="fill:#b0b0b0;fill-opacity:1">
      <g
         id="g8"
         style="fill:#b0b0b0;fill-opacity:1">
        <path
           d="m 18.79125,11.20875 h -11.17 l 4.88,-4.88 c 0.39,-0.39 0.39,-1.03 0,-1.42 v 0 c -0.39,-0.39 -1.02,-0.39 -1.41,0 l -6.59,6.59 c -0.39,0.39 -0.39,1.02 0,1.41 l 6.58,6.6 c 0.39,0.39 1.02,0.39 1.41,0 v 0 c 0.39,-0.39 0.39,-1.02 0,-1.41 l -4.87,-4.89 h 11.17 c 0.55,0 1,-0.45 1,-1 v 0 c 0,-0.55 -0.45,-1 -1,-1 z"
           id="path6"
           style="fill:#b0b0b0;fill-opacity:1" />
      </g>
    </g>
  </g>
</svg>
