<?xml version="1.0" encoding="UTF-8" standalone="no"?>
<svg
   xmlns:osb="http://www.openswatchbook.org/uri/2009/osb"
   xmlns:dc="http://purl.org/dc/elements/1.1/"
   xmlns:cc="http://creativecommons.org/ns#"
   xmlns:rdf="http://www.w3.org/1999/02/22-rdf-syntax-ns#"
   xmlns:svg="http://www.w3.org/2000/svg"
   xmlns="http://www.w3.org/2000/svg"
   xmlns:sodipodi="http://sodipodi.sourceforge.net/DTD/sodipodi-0.dtd"
   xmlns:inkscape="http://www.inkscape.org/namespaces/inkscape"
   height="24"
   viewBox="0 0 24 24"
   width="24"
   version="1.1"
   id="svg6"
   sodipodi:docname="category.svg"
   inkscape:version="1.0.1 (3bc2e813f5, 2020-09-07)">
  <metadata
     id="metadata12">
    <rdf:RDF>
      <cc:Work
         rdf:about="">
        <dc:format>image/svg+xml</dc:format>
        <dc:type
           rdf:resource="http://purl.org/dc/dcmitype/StillImage" />
        <dc:title></dc:title>
      </cc:Work>
    </rdf:RDF>
  </metadata>
  <defs
     id="defs10">
    <linearGradient
       id="linearGradient841"
       osb:paint="solid">
      <stop
         style="stop-color:#444444;stop-opacity:1;"
         offset="0"
         id="stop839" />
    </linearGradient>
  </defs>
  <sodipodi:namedview
     pagecolor="#ffffff"
     bordercolor="#666666"
     borderopacity="1"
     objecttolerance="10"
     gridtolerance="10"
     guidetolerance="10"
     inkscape:pageopacity="0"
     inkscape:pageshadow="2"
     inkscape:window-width="1920"
     inkscape:window-height="1018"
     id="namedview8"
     showgrid="false"
     inkscape:zoom="33.648126"
     inkscape:cx="12"
     inkscape:cy="12"
     inkscape:window-x="-6"
     inkscape:window-y="-6"
     inkscape:window-maximized="1"
     inkscape:current-layer="svg6"
     inkscape:document-rotation="0" />
  <path
     d="M0 0h24v24H0z"
     fill="none"
     id="path2" />
  <g
     inkscape:groupmode="layer"
     id="layer1"
     inkscape:label="Layer 1">
    <path
       fill="#444444"
       d="M 14.881053,13.684824 13.489751,10.338671 C 13.092235,9.5309784 12.396583,8.9540552 11.601551,8.9540552 H 4.247517 c -0.795032,0 -1.490684,0.5769232 -1.8882,1.3846158 l -1.39130401,3.346153 c -0.59627602,0.115382 -0.99379202,0.692308 -0.99379202,1.269231 v 4.038462 c 0,0.692306 0.39752,1.26923 0.99379202,1.384614 v 2.307692 c 0,0.692308 0.49689201,1.269232 1.09316801,1.269232 h 0.894408 c 0.496896,0 0.993788,-0.576924 0.993788,-1.269232 v -2.192306 h 7.95031 v 2.192306 c 0,0.692308 0.496896,1.269232 1.093168,1.269232 h 0.894412 c 0.59627,0 1.093166,-0.576924 1.093166,-1.269232 v -2.307692 c 0.596272,-0.11538 0.993788,-0.692308 0.993788,-1.384614 v -4.038462 c -0.09938,-0.576923 -0.496896,-1.153846 -1.093168,-1.269231 z M 3.949377,16.338671 c 0,0.34615 -0.29812,0.692306 -0.596272,0.692306 h -1.78882 c -0.29812,0 -0.59627201,-0.346154 -0.59627201,-0.692306 v -0.923078 c 0,-0.346154 0.29812001,-0.692307 0.59627201,-0.692307 h 1.78882 c 0.29812,0 0.596272,0.346154 0.596272,0.692307 z m 5.9627343,3 H 5.936957 V 18.184823 H 9.9121113 Z M 2.061181,13.56944 3.253725,10.800209 c 0.19876,-0.461538 0.596276,-0.692308 0.993792,-0.692308 h 7.354034 c 0.39752,0 0.795032,0.230771 0.993788,0.692308 l 1.192548,2.769231 z m 12.819872,2.769231 c 0,0.34615 -0.29812,0.692306 -0.59627,0.692306 h -1.78882 c -0.29812,0 -0.596276,-0.346154 -0.596276,-0.692306 v -0.923078 c 0,-0.346154 0.29812,-0.692307 0.596276,-0.692307 h 1.78882 c 0.298118,0 0.59627,0.346154 0.59627,0.692307 z"
       id="path2-4"
       style="fill:#a0a0a0;fill-opacity:1;stroke-width:0.999996" />
  </g>
  <path
     d="m 12.643368,5.0709176 h 11 V 3.4994891 h -11 z m 0,3.1428573 h 11 V 6.6423461 h -11 z m 0,-6.2857143 h 11 V 0.35663204 h -11 z m 0,-4.7142857 v 1.5714286 h 11 v -1.5714286 z"
     id="path4-1"
     style="fill:#67b4f0;fill-opacity:1;stroke-width:0.999997" />
</svg>
