<?xml version="1.0" encoding="UTF-8" standalone="no"?>
<svg
   xmlns:osb="http://www.openswatchbook.org/uri/2009/osb"
   xmlns:dc="http://purl.org/dc/elements/1.1/"
   xmlns:cc="http://creativecommons.org/ns#"
   xmlns:rdf="http://www.w3.org/1999/02/22-rdf-syntax-ns#"
   xmlns:svg="http://www.w3.org/2000/svg"
   xmlns="http://www.w3.org/2000/svg"
   xmlns:sodipodi="http://sodipodi.sourceforge.net/DTD/sodipodi-0.dtd"
   xmlns:inkscape="http://www.inkscape.org/namespaces/inkscape"
   height="24"
   viewBox="0 0 24 24"
   width="24"
   version="1.1"
   id="svg6"
   sodipodi:docname="layers.svg"
   inkscape:version="1.0.1 (3bc2e813f5, 2020-09-07)">
  <metadata
     id="metadata12">
    <rdf:RDF>
      <cc:Work
         rdf:about="">
        <dc:format>image/svg+xml</dc:format>
        <dc:type
           rdf:resource="http://purl.org/dc/dcmitype/StillImage" />
      </cc:Work>
    </rdf:RDF>
  </metadata>
  <defs
     id="defs10">
    <linearGradient
       id="linearGradient841"
       osb:paint="solid">
      <stop
         style="stop-color:#444444;stop-opacity:1;"
         offset="0"
         id="stop839" />
    </linearGradient>
  </defs>
  <sodipodi:namedview
     pagecolor="#ffffff"
     bordercolor="#666666"
     borderopacity="1"
     objecttolerance="10"
     gridtolerance="10"
     guidetolerance="10"
     inkscape:pageopacity="0"
     inkscape:pageshadow="2"
     inkscape:window-width="1920"
     inkscape:window-height="1018"
     id="namedview8"
     showgrid="false"
     inkscape:zoom="33.648126"
     inkscape:cx="12"
     inkscape:cy="12"
     inkscape:window-x="-6"
     inkscape:window-y="-6"
     inkscape:window-maximized="1"
     inkscape:current-layer="svg6"
     inkscape:document-rotation="0" />
  <path
     d="M0 0h24v24H0z"
     fill="none"
     id="path2" />
  <path
     d="m 17.469128,9.8169184 -4.50389,-3.3051918 -0.989998,0.726796 5.5,4.0377554 5.499999,-4.0377554 -0.996111,-0.7325641 z m 0.0061,-1.465129 4.497777,-3.305191 1.002222,-0.7325643 -5.499999,-4.03775583 -5.5,4.03775583 0.99611,0.7325643 z"
     id="path4"
     style="fill:#a0a0a0;fill-opacity:1;stroke-width:1" />
  <g
     inkscape:groupmode="layer"
     id="layer1"
     inkscape:label="Layer 1">
    <path
       fill="#444444"
       d="M 15.207966,13.298473 13.816664,9.9523192 C 13.419148,9.144627 12.723496,8.5677038 11.928464,8.5677038 H 4.5744297 c -0.795032,0 -1.490684,0.5769232 -1.8882,1.3846154 l -1.391304,3.3461538 c -0.59627602,0.115382 -0.99379202,0.692308 -0.99379202,1.269231 v 4.038462 c 0,0.692306 0.39752,1.26923 0.99379202,1.384614 v 2.307692 c 0,0.692308 0.496892,1.269232 1.093168,1.269232 h 0.894408 c 0.496896,0 0.993788,-0.576924 0.993788,-1.269232 V 20.106166 H 12.2266 v 2.192306 c 0,0.692308 0.496896,1.269232 1.093168,1.269232 h 0.894412 c 0.59627,0 1.093166,-0.576924 1.093166,-1.269232 V 19.99078 c 0.596272,-0.11538 0.993788,-0.692308 0.993788,-1.384614 v -4.038462 c -0.09938,-0.576923 -0.496896,-1.153846 -1.093168,-1.269231 z M 4.2762897,15.95232 c 0,0.34615 -0.29812,0.692306 -0.596272,0.692306 h -1.78882 c -0.29812,0 -0.596272,-0.346154 -0.596272,-0.692306 v -0.923078 c 0,-0.346154 0.29812,-0.692307 0.596272,-0.692307 h 1.78882 c 0.29812,0 0.596272,0.346154 0.596272,0.692307 z m 5.9627343,3 H 6.2638697 V 17.798472 H 10.239024 Z M 2.3880937,13.183089 3.5806377,10.413858 C 3.7793977,9.9523192 4.1769137,9.72155 4.5744297,9.72155 h 7.3540343 c 0.39752,0 0.795032,0.2307709 0.993788,0.692308 L 14.1148,13.183089 Z M 15.207966,15.95232 c 0,0.34615 -0.29812,0.692306 -0.59627,0.692306 h -1.78882 c -0.29812,0 -0.596276,-0.346154 -0.596276,-0.692306 v -0.923078 c 0,-0.346154 0.29812,-0.692307 0.596276,-0.692307 h 1.78882 c 0.298118,0 0.59627,0.346154 0.59627,0.692307 z"
       id="path2-4"
       style="fill:#67b4f0;fill-opacity:1;stroke-width:0.999996" />
  </g>
</svg>
