<?xml version="1.0" encoding="UTF-8" standalone="no"?>
<svg
   xmlns:dc="http://purl.org/dc/elements/1.1/"
   xmlns:cc="http://creativecommons.org/ns#"
   xmlns:rdf="http://www.w3.org/1999/02/22-rdf-syntax-ns#"
   xmlns:svg="http://www.w3.org/2000/svg"
   xmlns="http://www.w3.org/2000/svg"
   xmlns:sodipodi="http://sodipodi.sourceforge.net/DTD/sodipodi-0.dtd"
   xmlns:inkscape="http://www.inkscape.org/namespaces/inkscape"
   width="32"
   height="32"
   viewBox="0 0 8.4666665 8.4666669"
   version="1.1"
   id="svg8"
   inkscape:version="1.0.1 (3bc2e813f5, 2020-09-07)"
   sodipodi:docname="table_row.svg">
  <defs
     id="defs2" />
  <sodipodi:namedview
     id="base"
     pagecolor="#ffffff"
     bordercolor="#666666"
     borderopacity="1.0"
     inkscape:pageopacity="0.0"
     inkscape:pageshadow="2"
     inkscape:zoom="13.758407"
     inkscape:cx="17.877792"
     inkscape:cy="19.441231"
     inkscape:document-units="mm"
     inkscape:current-layer="layer1"
     inkscape:document-rotation="0"
     showgrid="false"
     units="px"
     inkscape:snap-bbox="true"
     inkscape:window-width="1920"
     inkscape:window-height="1018"
     inkscape:window-x="-6"
     inkscape:window-y="-6"
     inkscape:window-maximized="1"
     showguides="true"
     inkscape:guide-bbox="true">
    <sodipodi:guide
       position="-8.861133,11.371657"
       orientation="0,-1"
       id="guide48" />
  </sodipodi:namedview>
  <metadata
     id="metadata5">
    <rdf:RDF>
      <cc:Work
         rdf:about="">
        <dc:format>image/svg+xml</dc:format>
        <dc:type
           rdf:resource="http://purl.org/dc/dcmitype/StillImage" />
        <dc:title></dc:title>
      </cc:Work>
    </rdf:RDF>
  </metadata>
  <g
     inkscape:label="Ebene 1"
     inkscape:groupmode="layer"
     id="layer1">
    <path
       style="fill:none;stroke:#000000;stroke-width:0.269576px;stroke-linecap:butt;stroke-linejoin:miter;stroke-opacity:1"
       d="m 2.3767246,1.2457299 c 0,0 0,0 0,0 z"
       id="path1441" />
    <path
       d="M 6.5330773,2.514807 H 3.199744 c -0.3666667,0 -0.6666667,0.3 -0.6666667,0.6666667 V 6.514807 c 0,0.3666667 0.3,0.6666667 0.6666667,0.6666667 h 3.3333333 c 0.3666667,0 0.6666667,-0.3 0.6666667,-0.6666667 V 3.1814737 c 0,-0.3666667 -0.3,-0.6666667 -0.6666667,-0.6666667 z m 0,0.6666667 V 3.8481404 H 3.199744 V 3.1814737 Z m -2,1.9999999 V 4.5148069 H 5.199744 V 5.1814736 Z M 5.199744,5.8481403 V 6.514807 H 4.5330773 V 5.8481403 Z M 3.8664107,5.1814736 H 3.199744 V 4.5148069 h 0.6666667 z m 2,-0.6666667 H 6.5330773 V 5.1814736 H 5.8664107 Z M 3.199744,5.8481403 H 3.8664107 V 6.514807 H 3.199744 Z M 5.8664107,6.514807 V 5.8481403 H 6.5330773 V 6.514807 Z M 2.199744,5.8481403 H 1.8664107 c -0.3666667,0 -0.6666667,-0.3 -0.6666667,-0.6666667 V 1.8481403 c 0,-0.3666666 0.3,-0.6666666 0.6666667,-0.6666666 H 5.199744 c 0.3666667,0 0.6666667,0.3 0.6666667,0.6666666 V 2.1814737 H 5.199744 V 1.8481403 H 1.8664107 V 5.1814736 H 2.199744 Z"
       id="path4-1"
       style="fill:#a0a0a0;fill-opacity:1;stroke-width:0.333333" />
    <rect
       style="fill:#f5c00d;fill-opacity:1;stroke-width:0.264583"
       id="rect1991"
       width="3.3333335"
       height="0.66666657"
       x="3.1997437"
       y="5.1814737" />
  </g>
</svg>
